<svg width="799" height="147" viewBox="0 0 799 147" fill="none" xmlns="http://www.w3.org/2000/svg">
<path d="M178.203 117.924H180.097H193.236V71.9783H240.139V58.3558H193.236V37.0455H241.398V23.4231H178.203V117.924Z" fill="#1a2234"/>
<path d="M256.277 117.924H258.172H271.028V23H256.277V117.924Z" fill="#1a2234"/>
<path d="M324.947 43.3528C313.017 43.3528 303.143 47.8768 296.321 54.9399C289.49 61.993 285.691 71.5246 285.691 81.4896C285.691 91.4545 289.49 100.986 296.321 108.039C303.143 115.092 313.017 119.626 324.947 119.626C336.876 119.626 346.751 115.102 353.572 108.039C360.403 100.986 364.202 91.4545 364.202 81.4896C364.202 71.5246 360.403 61.993 353.572 54.9399C346.751 47.8869 336.876 43.3528 324.947 43.3528ZM324.947 106.679C317.168 106.669 311.062 103.656 306.79 99.0114C302.528 94.3664 300.16 88.0489 300.16 81.4795C300.16 74.9907 302.528 68.6631 306.79 63.998C311.062 59.333 317.168 56.2901 324.947 56.28C332.796 56.2901 338.902 59.343 343.154 63.998C347.395 68.6631 349.733 74.9907 349.733 81.4896C349.733 88.0691 347.395 94.3866 343.154 99.0315C338.902 103.666 332.806 106.689 324.947 106.699V106.679Z" fill="#1a2234"/>
<path d="M448.737 95.6062L427.961 45.0359H418.107L397.331 95.6062L382.177 45.0359H367.617L391.467 117.924H401.693L423.034 66.7492L444.374 117.924H454.601L478.451 45.0359H463.891L448.737 95.6062Z" fill="#1a2234"/>
<path d="M520.767 43.3528C509.684 43.3528 500.132 47.5544 493.411 54.4563C486.681 61.3481 482.771 70.9 482.781 81.4795C482.781 91.8878 486.419 101.44 493.109 108.392C499.789 115.344 509.512 119.616 521.331 119.616C537.654 119.616 550.954 110.367 556.486 98.2859L557.715 95.5957H543.306L542.752 96.4924C539.044 102.498 531.397 107.384 521.2 107.384C514.359 107.384 508.867 105.279 504.837 101.601C501.24 98.3061 498.772 93.6712 497.714 87.8676H558.209V80.7742C558.209 70.4466 554.642 61.0559 548.133 54.2749C541.624 47.4738 532.193 43.3427 520.777 43.3528H520.767ZM543.901 75.6457H497.522C498.499 69.701 501.089 64.8545 504.787 61.3784C508.928 57.5093 514.459 55.2926 520.898 55.2926C527.901 55.3027 533.352 57.7007 537.281 61.6504C540.788 65.1769 543.065 70.0234 543.901 75.6557V75.6457Z" fill="#1a2234"/>
<path d="M618.608 45.8617C614.981 44.2294 610.88 43.3528 606.416 43.3528C600.038 43.3528 594.164 44.7432 589.338 47.504C586.678 49.0254 584.36 50.9801 582.476 53.3278V45.0455H568.148V117.934H582.899V78.2553C582.899 72.1695 585.015 66.8596 588.562 63.0711C592.119 59.2927 597.086 56.9954 603.051 56.9853C606.346 56.9853 609.066 57.5596 611.313 58.5672C614.678 60.0886 617.046 62.5673 618.668 65.9527C620.291 69.3382 621.097 73.6406 621.087 78.5374V117.934H635.837V76.4316C635.837 67.0712 633.057 58.8191 627.938 52.8643C625.379 49.892 622.235 47.504 618.608 45.8717V45.8617Z" fill="#1a2234"/>
<path d="M674.568 58.366C677.52 57.036 680.926 56.2702 684.785 56.2702C690.558 56.2702 695.213 57.7816 698.921 60.2199C702.619 62.6583 705.39 66.0639 707.223 69.933L707.737 71.0212H722.246L721.41 68.5224C719.042 61.4089 714.478 55.1115 708.221 50.5875C701.964 46.0635 694.004 43.343 684.926 43.343C673.228 43.343 663.454 47.6454 656.673 54.6077C649.882 61.56 646.094 71.1119 646.094 81.4798C646.094 91.8377 649.882 101.39 656.673 108.352C663.454 115.314 673.228 119.627 684.926 119.617C694.014 119.617 701.974 116.896 708.221 112.372C714.478 107.858 719.042 101.551 721.41 94.4373L722.246 91.9385H707.727L707.213 93.0367C705.359 96.9965 702.71 100.372 699.072 102.79C695.435 105.198 690.79 106.679 684.775 106.689C680.916 106.689 677.51 105.934 674.558 104.614C670.135 102.629 666.689 99.3744 664.321 95.334C661.953 91.2936 660.694 86.4875 660.694 81.4798C660.694 74.8802 662.94 68.5526 667.041 63.9178C669.097 61.6003 671.606 59.696 674.558 58.366H674.568Z" fill="#1a2234"/>
<path d="M797.118 45.0359H781.299L780.816 46.2248L760.231 97.2486L738.628 45.0359H723.102L752.432 113.511L741.369 140H756.724L767.062 115.063L797.118 45.0359Z" fill="#1a2234"/>
<path d="M142.38 59.3H96.83C89.57 59.3 82.73 57.84 76.48 55.2C67.11 51.24 59.1 44.59 53.46 36.24C47.82 27.88 44.54 17.88 44.54 7.01001H18.16C18.16 17.84 20.36 28.22 24.35 37.64C27.73 45.63 32.39 52.94 38.06 59.31H0V85.69H83.68C81.29 88.36 79.08 91.18 77.07 94.16C68.59 106.7 63.62 121.91 63.63 138.16H90.01C90.01 130.9 91.47 124.06 94.11 117.81C98.07 108.44 104.72 100.43 113.07 94.79C121.43 89.15 131.43 85.87 142.3 85.87V85.7H142.38V59.32V59.3Z" fill="url(#paint0_linear)"/>
<path d="M798.411 130.98H797.911C797.911 132.9 797.131 134.63 795.881 135.88C794.621 137.14 792.891 137.91 790.981 137.91C789.061 137.91 787.331 137.13 786.081 135.88C784.821 134.62 784.051 132.89 784.051 130.98C784.051 129.06 784.831 127.33 786.081 126.08C787.341 124.82 789.071 124.05 790.981 124.05C792.901 124.05 794.631 124.83 795.881 126.08C797.141 127.34 797.911 129.07 797.911 130.98H798.911C798.911 126.6 795.361 123.04 790.971 123.04C786.591 123.04 783.031 126.59 783.031 130.98C783.031 135.36 786.581 138.92 790.971 138.92C795.351 138.92 798.911 135.37 798.911 130.98H798.411Z" fill="#1a2234"/>
<path d="M792.5 132.56C793.66 132.17 794.41 131.2 794.41 130.1C794.41 129.39 794.09 128.72 793.55 128.25C793.01 127.77 792.24 127.48 791.34 127.48H788.09V134.96H789.49V132.75H790.86L793.18 134.96H795.05L792.51 132.56H792.5ZM789.49 128.66H791.25C792.46 128.67 793.01 129.36 793.02 130.09C793.02 130.83 792.45 131.53 791.25 131.55H789.49V128.66Z" fill="#1a2234"/>
<defs>
<linearGradient id="paint0_linear" x1="-0.000356391" y1="72.5938" x2="99.5792" y2="72.5938" gradientUnits="userSpaceOnUse">
<stop stop-color="#FF3D00"/>
<stop offset="0.75" stop-color="#FF4E00"/>
<stop offset="1" stop-color="#FF5C00"/>
</linearGradient>
</defs>
</svg>
